PathFileType  4	(X/Y/Z) /Users/kristensteudel/Documents/NMBL_Research/BertecForceProcessing/anc_files/
DataRate	CameraRate	NumFrames	NumMarkers	Units	OrigDataRate	OrigDataStartFrame	OrigNumFrames
  200.0		  200.0		    5		     46		 mm	  200.0	      319	    636
Frame#	Time	r_knee			r_shank_antsup			r_ankle			r_calc			r_5meta			r_toe			L_knee			L_shank_antsup			L_ankle			L_calc			L_5meta			L_toe			r_sh2			r_sh3			r_sh4			L_sh2			L_sh3			r_thigh1			r_thigh2			r_thigh3			r_thigh4			r_thigh5			L_thigh1			L_thigh2			L_thigh3			L_thigh4			r.ASIS			r.PSIS			L.ASIS			L.PSIS			C7			R_Shoulder			L_Shoulder			Sternum			R_humerus			R_elbow_med			R_elbow_lat			R_forearm			R_wrist_radius			R_wrist_ulna			L_humerus			L_elbow_med			L_elbow_lat			L_forearm			L_wrist_radius			L_wrist_ulna			
		X1	Y1	Z1	X2	Y2	Z2	X3	Y3	Z3	X4	Y4	Z4	X5	Y5	Z5	X6	Y6	Z6	X7	Y7	Z7	X8	Y8	Z8	X9	Y9	Z9	X10	Y10	Z10	X11	Y11	Z11	X12	Y12	Z12	X13	Y13	Z13	X14	Y14	Z14	X15	Y15	Z15	X16	Y16	Z16	X17	Y17	Z17	X18	Y18	Z18	X19	Y19	Z19	X20	Y20	Z20	X21	Y21	Z21	X22	Y22	Z22	X23	Y23	Z23	X24	Y24	Z24	X25	Y25	Z25	X26	Y26	Z26	X27	Y27	Z27	X28	Y28	Z28	X29	Y29	Z29	X30	Y30	Z30	X31	Y31	Z31	X32	Y32	Z32	X33	Y33	Z33	X34	Y34	Z34	X35	Y35	Z35	X36	Y36	Z36	X37	Y37	Z37	X38	Y38	Z38	X39	Y39	Z39	X40	Y40	Z40	X41	Y41	Z41	X42	Y42	Z42	X43	Y43	Z43	X44	Y44	Z44	X45	Y45	Z45	X46	Y46	Z46	

319	1.59000	630.170	584.731	-150.502	523.484	514.488	-145.331	205.707	460.065	-196.351	192.331	523.782	-273.635	106.419	356.167	-167.203	136.045	300.356	-213.471	1131.537	634.078	-458.525	1190.800	525.506	-466.734	1238.483	207.127	-436.375	1190.364	172.987	-380.853	1403.331	174.948	-451.278	1430.607	212.266	-388.264	408.576	484.488	-161.981	501.644	584.096	-130.413	393.192	565.763	-165.506	1102.875	507.671	-481.218	1139.527	392.774	-464.098	820.886	733.242	-121.666	759.149	637.530	-139.789	706.221	631.675	-129.860	721.500	784.805	-101.213	666.241	685.045	-131.278	1076.383	866.021	-470.202	1154.415	752.723	-444.361	981.279	799.269	-492.092	1062.743	690.464	-461.261	933.907	1015.461	-158.564	730.335	1093.909	-231.478	927.089	1027.500	-420.147	731.258	1089.584	-340.353	811.058	1566.317	-288.963	920.060	1538.644	-118.299	823.148	1548.419	-482.145	958.772	1468.166	-338.663	933.541	1325.257	-11.250	817.167	1193.539	-10.358	852.097	1234.914	66.307	987.518	1281.596	-36.901	1066.717	1304.766	-111.513	1083.740	1261.250	-93.376	647.026	1426.426	-577.034	503.215	1388.389	-510.982	536.686	1428.525	-592.006	630.312	1294.170	-598.757	728.823	1225.868	-551.289	669.558	1190.233	-580.114
320	1.59500	636.728	583.035	-149.914	526.957	519.471	-143.728	207.535	483.525	-195.330	198.564	548.131	-272.723	102.393	386.065	-166.125	127.929	328.718	-212.270	1123.356	623.924	-458.590	1187.913	520.422	-466.214	1250.122	205.121	-435.643	1204.424	170.425	-378.262	1416.763	176.491	-450.455	1443.593	215.897	-388.409	410.964	495.634	-161.606	508.908	590.559	-130.773	399.842	577.504	-166.441	1100.100	500.871	-479.317	1140.252	385.774	-464.524	825.753	732.817	-121.186	765.777	636.194	-139.388	712.558	629.597	-129.032	725.832	782.803	-100.263	671.889	682.246	-130.304	1073.278	857.013	-468.243	1146.534	740.834	-442.723	976.553	794.806	-493.094	1052.423	681.965	-462.609	934.235	1017.248	-158.183	730.186	1094.944	-231.566	925.356	1028.198	-420.341	730.364	1089.950	-339.911	813.165	1568.196	-290.224	920.088	1539.974	-118.993	824.572	1548.527	-483.069	959.479	1469.063	-338.791	930.156	1328.350	-10.058	810.639	1198.904	-9.440	846.191	1239.843	66.935	984.828	1279.484	-35.943	1066.257	1297.794	-110.051	1080.880	1253.963	-90.818	649.235	1425.351	-577.554	506.214	1384.093	-511.764	539.194	1425.139	-592.678	633.686	1290.825	-599.544	732.610	1222.565	-552.155	673.095	1187.140	-581.413
321	1.60000	644.345	580.586	-149.442	532.768	524.453	-142.034	211.760	506.112	-194.020	207.324	571.661	-271.328	100.841	415.824	-165.184	122.052	356.955	-213.933	1115.079	614.610	-458.905	1181.967	516.679	-465.791	1258.233	203.640	-433.218	1214.204	168.997	-375.021	1425.482	177.417	-449.826	1451.958	219.268	-389.211	415.858	506.041	-160.847	518.517	595.996	-131.433	408.870	588.339	-166.375	1095.606	493.443	-476.889	1139.237	379.176	-462.875	831.111	732.207	-120.453	772.240	634.262	-138.079	719.143	627.057	-127.724	730.437	780.514	-99.138	677.837	679.270	-129.392	1068.644	847.561	-466.873	1137.636	728.993	-441.481	970.377	789.348	-494.440	1041.675	673.522	-463.617	934.886	1018.671	-158.172	730.467	1095.657	-231.317	923.773	1028.830	-420.645	729.014	1090.281	-339.029	815.147	1569.811	-291.797	920.382	1541.031	-120.029	826.429	1548.081	-484.031	960.116	1469.506	-338.815	926.447	1331.114	-9.077	803.362	1203.858	-8.937	839.854	1244.507	67.577	981.436	1276.298	-34.949	1065.438	1289.319	-108.087	1077.139	1245.234	-87.836	651.850	1423.462	-578.303	509.580	1379.058	-513.044	542.202	1420.489	-593.859	637.532	1286.534	-600.640	736.849	1218.529	-553.349	677.477	1183.242	-582.721
322	1.60500	652.731	577.251	-148.989	540.504	527.164	-143.115	219.576	527.749	-192.892	218.286	594.438	-269.599	102.022	444.616	-165.104	119.110	384.768	-214.469	1106.927	606.404	-459.623	1174.969	512.963	-465.500	1261.813	202.227	-430.554	1219.796	167.888	-371.097	1429.688	177.974	-449.270	1456.093	222.218	-390.803	422.435	515.809	-160.252	530.574	600.184	-131.715	419.689	598.059	-165.045	1089.178	486.580	-475.388	1136.598	373.000	-459.582	836.624	730.571	-119.632	779.301	632.006	-137.750	726.140	624.225	-126.635	734.977	777.683	-98.120	684.145	675.686	-128.594	1062.939	837.983	-465.953	1127.609	717.202	-441.007	963.597	783.458	-496.564	1030.405	664.831	-464.467	935.570	1019.562	-158.336	730.110	1096.295	-230.270	921.795	1029.550	-421.184	727.981	1090.212	-338.021	817.325	1571.151	-293.062	920.830	1541.646	-121.160	828.499	1547.177	-484.943	960.699	1469.399	-338.866	922.385	1333.679	-8.284	795.717	1208.728	-8.581	832.987	1249.019	67.832	977.710	1272.124	-33.655	1063.818	1279.230	-105.734	1072.699	1235.087	-84.419	654.872	1420.618	-579.474	513.173	1373.125	-514.695	545.175	1414.988	-595.594	641.744	1281.282	-601.925	741.370	1213.433	-554.327	681.997	1178.446	-584.084
323	1.61000	662.139	573.491	-147.847	549.156	528.940	-143.294	227.137	548.658	-191.468	231.124	616.329	-267.681	105.943	472.011	-165.127	119.976	411.787	-215.451	1099.419	599.355	-460.393	1167.428	508.496	-465.839	1261.571	200.193	-426.965	1221.637	166.481	-365.975	1429.473	177.470	-448.849	1456.686	223.719	-392.102	430.349	524.651	-159.522	543.521	602.196	-132.641	432.160	606.768	-163.363	1081.673	479.369	-472.679	1132.450	367.267	-455.077	842.039	729.684	-120.154	786.395	629.661	-137.555	733.607	620.931	-125.752	739.732	774.510	-97.207	690.747	671.579	-127.876	1056.592	828.382	-465.299	1116.963	705.528	-441.589	955.808	777.711	-498.561	1019.922	657.364	-463.398	936.374	1020.182	-158.833	729.930	1096.715	-229.641	919.715	1030.242	-421.711	726.597	1089.623	-336.583	819.460	1572.348	-294.512	921.483	1541.881	-122.324	830.831	1545.699	-485.733	961.325	1468.814	-338.858	917.671	1335.617	-7.952	787.771	1213.463	-8.499	825.771	1253.256	67.835	973.466	1266.798	-32.049	1061.417	1267.802	-102.674	1067.434	1223.548	-80.432	658.141	1416.875	-580.955	517.241	1366.328	-516.481	548.860	1408.394	-597.630	646.398	1275.224	-603.475	746.731	1208.077	-555.434	687.213	1172.950	-585.575
